<svg width="500" height="500" viewBox="0 0 500 500" fill="none" xmlns="http://www.w3.org/2000/svg">
<rect width="500" height="500" rx="100" fill="url(#paint0_linear_68_646)"/>
<path d="M242.415 390.791L149.38 389.829C137.021 389.7 126.47 380.703 122.354 368.346C118.784 357.628 120.259 345.211 127.933 337.021L188.731 272.146C200.452 259.636 199.525 239.545 187.705 226.989L127.107 162.612C118.365 153.325 116.296 139.601 121.007 127.865C125.53 116.595 135.499 109.085 147.178 109.21L238.991 110.177C247.07 110.259 254.145 114.283 259.874 120.379L362.925 230.014C373.604 241.377 374.604 261.437 363.891 272.85L262.995 380.363C257.501 386.214 250.704 390.874 242.415 390.791Z" fill="white"/>
<path d="M147.263 100.002L147.262 100.002L239.074 100.969L239.074 100.97C249.918 101.081 259.009 106.514 265.883 113.829L368.934 223.464L368.934 223.464C382.608 238.014 384.379 263.973 369.905 279.395L369.905 279.395L269.008 386.909L269.007 386.909C262.743 393.582 253.871 400.114 242.336 399.998H242.333L149.298 399.036H149.297C132.986 398.866 119.5 387.046 114.306 371.456V371.455C109.856 358.092 111.413 341.689 121.914 330.481L121.915 330.479L182.712 265.605C190.701 257.08 190.496 242.887 181.701 233.545L181.7 233.545L121.103 169.167C109.728 157.083 107.118 139.261 113.159 124.211C118.963 109.749 131.935 99.8388 147.263 100.002ZM146.718 118.417C138.847 118.492 132.047 123.566 128.855 131.518L128.855 131.519C125.474 139.941 127.003 149.567 133.111 156.056L133.112 156.056L193.708 220.434L194.054 220.805C208.578 236.608 210.083 262.322 194.749 278.686L133.95 343.562C129.105 348.734 127.713 357.163 130.401 365.236C133.441 374.361 141.057 380.533 149.463 380.621L242.497 381.583C247.539 381.633 252.26 378.846 256.982 373.816L357.878 266.304L357.878 266.304C364.829 258.899 364.599 244.741 356.917 236.565L253.865 126.93L253.864 126.929C249.282 122.053 244.224 119.439 238.909 119.384H238.907L147.094 118.417H146.718Z" fill="white"/>
<defs>
<linearGradient id="paint0_linear_68_646" x1="500" y1="250" x2="0" y2="250" gradientUnits="userSpaceOnUse">
<stop stop-color="#009DD9"/>
<stop offset="1" stop-color="#0B2D71"/>
</linearGradient>
</defs>
</svg>
